<svg width="54" height="54" viewBox="0 0 54 54" fill="none" xmlns="http://www.w3.org/2000/svg">
<g filter="url(#filter0_dd_2406_29863)">
<path d="M3 5.2C3 3.43269 4.43269 2 6.2 2H47.8C49.5673 2 51 3.43269 51 5.2V46.8C51 48.5673 49.5673 50 47.8 50H6.2C4.43269 50 3 48.5673 3 46.8V5.2Z" fill="#F7931E"/>
<path d="M12.4173 15.5205C12.4592 15.3998 13.0498 13.7824 13.7243 11.9235C14.3988 10.0674 14.9586 8.55106 14.9698 8.55386C14.981 8.55948 17.8526 11.9881 21.3511 16.172C24.8525 20.3559 27.8388 23.9305 28.2615 24.4415L26.96 28.0302C26.2435 30.0014 25.6502 31.6216 25.6418 31.63C25.6334 31.6385 25.6194 31.63 25.6082 31.6132C25.597 31.5963 24.6818 30.5012 23.5734 29.1786C22.4651 27.8533 21.5527 26.7722 21.5443 26.7722C21.5359 26.7722 20.1756 30.5124 18.5215 35.0867C16.8674 39.6609 15.5072 43.4124 15.4988 43.4264C15.4904 43.4405 13.9846 43.4489 8.4541 43.4377L12.5236 32.2057L12.5529 32.1249C14.7759 25.9838 16.5988 20.9483 16.6071 20.9175C16.6183 20.8726 16.1677 20.3166 12.3361 15.7367L12.4173 15.5205Z" fill="white"/>
<path d="M37.145 19.55C39.2973 13.6139 41.0801 8.71111 41.1053 8.65214L41.1501 8.54544L41.2089 8.61002C41.2425 8.64653 42.3452 9.96348 46.0565 14.4029L40.8394 28.7939C37.9678 36.7097 35.6 43.2467 35.5245 43.4545L31.0883 38.1558C28.6477 35.2411 26.6381 32.8375 26.6186 32.8122C26.5934 32.7757 26.8201 32.1242 27.8584 29.2573C28.5581 27.3282 29.1459 25.7051 29.1991 25.5591L31.2003 27.9487C32.3002 29.2629 33.207 30.3384 33.2154 30.3384C33.2238 30.3384 34.9927 25.4833 37.145 19.55Z" fill="white"/>
</g>
<defs>
<filter id="filter0_dd_2406_29863" x="0" y="0" width="54" height="54" filterUnits="userSpaceOnUse" color-interpolation-filters="sRGB">
<feFlood flood-opacity="0" result="BackgroundImageFix"/>
<feColorMatrix in="SourceAlpha" type="matrix" values="0 0 0 0 0 0 0 0 0 0 0 0 0 0 0 0 0 0 127 0" result="hardAlpha"/>
<feOffset dy="1"/>
<feGaussianBlur stdDeviation="1"/>
<feComposite in2="hardAlpha" operator="out"/>
<feColorMatrix type="matrix" values="0 0 0 0 0.0627451 0 0 0 0 0.0941176 0 0 0 0 0.156863 0 0 0 0.06 0"/>
<feBlend mode="normal" in2="BackgroundImageFix" result="effect1_dropShadow_2406_29863"/>
<feColorMatrix in="SourceAlpha" type="matrix" values="0 0 0 0 0 0 0 0 0 0 0 0 0 0 0 0 0 0 127 0" result="hardAlpha"/>
<feOffset dy="1"/>
<feGaussianBlur stdDeviation="1.5"/>
<feComposite in2="hardAlpha" operator="out"/>
<feColorMatrix type="matrix" values="0 0 0 0 0.0627451 0 0 0 0 0.0941176 0 0 0 0 0.156863 0 0 0 0.1 0"/>
<feBlend mode="normal" in2="effect1_dropShadow_2406_29863" result="effect2_dropShadow_2406_29863"/>
<feBlend mode="normal" in="SourceGraphic" in2="effect2_dropShadow_2406_29863" result="shape"/>
</filter>
</defs>
</svg>
