<svg width="16" height="20" viewBox="0 0 16 20" fill="none" xmlns="http://www.w3.org/2000/svg">
<path d="M4.55722 12.8833L3.83333 18.3334L7.657 16.0392C7.78171 15.9643 7.84406 15.9269 7.91063 15.9123C7.96951 15.8994 8.03049 15.8994 8.08937 15.9123C8.15593 15.9269 8.21829 15.9643 8.343 16.0392L12.1667 18.3334L11.4433 12.8809M11.6882 3.54075C11.8169 3.85202 12.064 4.09944 12.375 4.22861L13.4658 4.68042C13.7771 4.80936 14.0244 5.05668 14.1533 5.36797C14.2822 5.67926 14.2822 6.02903 14.1533 6.34032L13.7018 7.43031C13.5728 7.74174 13.5726 8.09186 13.7022 8.40314L14.1529 9.49281C14.2168 9.64699 14.2498 9.81225 14.2498 9.97915C14.2498 10.1461 14.2169 10.3113 14.1531 10.4655C14.0892 10.6197 13.9956 10.7598 13.8775 10.8778C13.7595 10.9958 13.6194 11.0894 13.4652 11.1532L12.3752 11.6047C12.064 11.7334 11.8166 11.9805 11.6874 12.2915L11.2356 13.3823C11.1067 13.6936 10.8593 13.9409 10.5481 14.0699C10.2368 14.1988 9.88704 14.1988 9.57576 14.0699L8.4858 13.6184C8.17451 13.4898 7.82489 13.49 7.5138 13.6191L6.42306 14.0703C6.11195 14.1989 5.76251 14.1988 5.45148 14.07C5.14045 13.9411 4.89328 13.6941 4.76426 13.3832L4.31232 12.2921C4.18363 11.9808 3.93659 11.7334 3.62553 11.6042L2.53479 11.1524C2.22365 11.0235 1.97641 10.7763 1.84743 10.4652C1.71844 10.1541 1.71827 9.80452 1.84694 9.49328L2.29841 8.40328C2.42703 8.09198 2.42677 7.74234 2.29768 7.43124L1.84686 6.33968C1.78294 6.1855 1.75003 6.02024 1.75 5.85333C1.74997 5.68643 1.78283 5.52116 1.8467 5.36696C1.91057 5.21276 2.0042 5.07266 2.12223 4.95466C2.24026 4.83666 2.38039 4.74307 2.5346 4.67925L3.62456 4.22776C3.93554 4.09917 4.1828 3.85244 4.31206 3.54172L4.76386 2.45094C4.8928 2.13965 5.14011 1.89233 5.45139 1.76339C5.76267 1.63445 6.11242 1.63445 6.4237 1.76339L7.51365 2.21488C7.82494 2.34351 8.17456 2.34324 8.48566 2.21415L9.57686 1.76409C9.88809 1.63522 10.2378 1.63525 10.549 1.76417C10.8602 1.89308 11.1075 2.14033 11.2364 2.45154L11.6884 3.54264L11.6882 3.54075Z" stroke="#F7931E" stroke-width="2" stroke-linecap="round" stroke-linejoin="round"/>
</svg>
