<svg width="20" height="20" viewBox="0 0 20 20" fill="none" xmlns="http://www.w3.org/2000/svg">
<g clip-path="url(#clip0_9016_28098)">
<path d="M12.5003 2.04819C11.7111 1.80032 10.8713 1.66669 10.0003 1.66669C5.39795 1.66669 1.66699 5.39765 1.66699 10C1.66699 14.6024 5.39795 18.3334 10.0003 18.3334C14.6027 18.3334 18.3337 14.6024 18.3337 10C18.3337 8.57058 17.9738 7.2252 17.3396 6.04956M14.167 4.79169H14.1712M8.75037 18.2402L8.75046 16.4041C8.75046 16.3047 8.78604 16.2085 8.85077 16.133L10.9223 13.7162C11.0925 13.5176 11.0397 13.2131 10.8126 13.0833L8.43244 11.7231C8.36777 11.6862 8.31419 11.6326 8.27727 11.5679L6.72571 8.84888C6.64496 8.70737 6.48914 8.62591 6.32685 8.64036L1.72048 9.05064M17.5003 5.00002C17.5003 6.84097 15.8337 8.33335 14.167 10C12.5003 8.33335 10.8337 6.84097 10.8337 5.00002C10.8337 3.15907 12.326 1.66669 14.167 1.66669C16.0079 1.66669 17.5003 3.15907 17.5003 5.00002ZM14.3753 4.79169C14.3753 4.90675 14.2821 5.00002 14.167 5.00002C14.0519 5.00002 13.9587 4.90675 13.9587 4.79169C13.9587 4.67663 14.0519 4.58335 14.167 4.58335C14.2821 4.58335 14.3753 4.67663 14.3753 4.79169Z" stroke="#F7931E" stroke-width="2" stroke-linecap="round" stroke-linejoin="round"/>
</g>
<defs>
<clipPath id="clip0_9016_28098">
<rect width="20" height="20" fill="white"/>
</clipPath>
</defs>
</svg>
