<svg width="32" height="32" viewBox="0 0 32 32" fill="none" xmlns="http://www.w3.org/2000/svg">
<path d="M16 3L6 7L5.5 8.5V18L8 23L16 29.5L23 24.5L26.5 18L26 7L16 3Z" fill="#FDE9D2"/>
<path d="M15.07 28.8198C15.3652 28.992 15.5128 29.0781 15.7211 29.1228C15.8827 29.1575 16.1186 29.1575 16.2802 29.1228C16.4885 29.0781 16.6361 28.992 16.9313 28.8198C19.5287 27.3045 26.6673 22.5446 26.6673 16V9.62346C26.6673 8.55744 26.6673 8.02443 26.493 7.56626C26.339 7.16151 26.0887 6.80036 25.7638 6.51403C25.396 6.18991 24.8969 6.00276 23.8988 5.62845L16.7497 2.94756C16.4725 2.84361 16.3339 2.79163 16.1913 2.77103C16.0649 2.75276 15.9364 2.75276 15.81 2.77103C15.6674 2.79163 15.5288 2.84361 15.2516 2.94756L8.10252 5.62845C7.10438 6.00276 6.60531 6.18991 6.23753 6.51403C5.91263 6.80036 5.66235 7.16151 5.50833 7.56626C5.33398 8.02443 5.33398 8.55744 5.33398 9.62346V16C5.33398 22.5446 12.4726 27.3045 15.07 28.8198Z" stroke="#F7931E" stroke-width="2" stroke-linecap="round" stroke-linejoin="round"/>
<path d="M6 27C6 27.1768 5.92976 27.3464 5.80474 27.4714C5.67971 27.5964 5.51014 27.6667 5.33333 27.6667H4.66667V28.3333C4.66667 28.5101 4.59643 28.6797 4.4714 28.8047C4.34638 28.9298 4.17681 29 4 29C3.82319 29 3.65362 28.9298 3.5286 28.8047C3.40357 28.6797 3.33333 28.5101 3.33333 28.3333V27.6667H2.66667C2.48986 27.6667 2.32029 27.5964 2.19526 27.4714C2.07024 27.3464 2 27.1768 2 27C2 26.8232 2.07024 26.6536 2.19526 26.5286C2.32029 26.4036 2.48986 26.3333 2.66667 26.3333H3.33333V25.6667C3.33333 25.4899 3.40357 25.3203 3.5286 25.1953C3.65362 25.0702 3.82319 25 4 25C4.17681 25 4.34638 25.0702 4.4714 25.1953C4.59643 25.3203 4.66667 25.4899 4.66667 25.6667V26.3333H5.33333C5.51014 26.3333 5.67971 26.4036 5.80474 26.5286C5.92976 26.6536 6 26.8232 6 27ZM8 29C7.86815 29 7.73925 29.0391 7.62962 29.1124C7.51999 29.1856 7.43454 29.2897 7.38408 29.4115C7.33362 29.5334 7.32042 29.6674 7.34614 29.7967C7.37187 29.926 7.43536 30.0448 7.5286 30.1381C7.62183 30.2313 7.74062 30.2948 7.86994 30.3205C7.99926 30.3462 8.13331 30.333 8.25512 30.2826C8.37694 30.2321 8.48106 30.1467 8.55431 30.037C8.62757 29.9274 8.66667 29.7985 8.66667 29.6667C8.66667 29.4899 8.59643 29.3203 8.4714 29.1953C8.34638 29.0702 8.17681 29 8 29ZM29.3333 2.33333H28.6667V1.66667C28.6667 1.48986 28.5964 1.32029 28.4714 1.19526C28.3464 1.07024 28.1768 1 28 1C27.8232 1 27.6536 1.07024 27.5286 1.19526C27.4036 1.32029 27.3333 1.48986 27.3333 1.66667V2.33333H26.6667C26.4899 2.33333 26.3203 2.40357 26.1953 2.5286C26.0702 2.65362 26 2.82319 26 3C26 3.17681 26.0702 3.34638 26.1953 3.4714C26.3203 3.59643 26.4899 3.66667 26.6667 3.66667H27.3333V4.33333C27.3333 4.51014 27.4036 4.67971 27.5286 4.80474C27.6536 4.92976 27.8232 5 28 5C28.1768 5 28.3464 4.92976 28.4714 4.80474C28.5964 4.67971 28.6667 4.51014 28.6667 4.33333V3.66667H29.3333C29.5101 3.66667 29.6797 3.59643 29.8047 3.4714C29.9298 3.34638 30 3.17681 30 3C30 2.82319 29.9298 2.65362 29.8047 2.5286C29.6797 2.40357 29.5101 2.33333 29.3333 2.33333Z" fill="#FDDFBC"/>
<path d="M11.2842 11.3976C11.2986 11.3561 11.5016 10.8002 11.7335 10.1612C11.9653 9.52315 12.1577 9.00193 12.1616 9.0029C12.1654 9.00483 13.1525 10.1834 14.3551 11.6216C15.5587 13.0598 16.5852 14.2885 16.7305 14.4642L16.2831 15.6977C16.0368 16.3753 15.8329 16.9323 15.83 16.9352C15.8271 16.938 15.8223 16.9352 15.8185 16.9294C15.8146 16.9236 15.5 16.5471 15.119 16.0925C14.738 15.6369 14.4244 15.2653 14.4215 15.2653C14.4186 15.2653 13.9511 16.551 13.3825 18.1233C12.8139 19.6957 12.3463 20.9853 12.3434 20.9901C12.3405 20.9949 11.8229 20.9978 9.92188 20.9939L11.3207 17.133L11.3297 17.1084C12.0943 14.996 12.7215 13.2634 12.7244 13.2528C12.7283 13.2374 12.5734 13.0462 11.2563 11.472L11.2842 11.3976Z" fill="#F7931E"/>
<path d="M19.7841 12.7827C20.524 10.7422 21.1368 9.05695 21.1455 9.03668L21.1609 9L21.1811 9.0222C21.1926 9.03475 21.5717 9.48744 22.8474 11.0135L21.0541 15.9603C20.067 18.6813 19.2531 20.9283 19.2271 20.9997L17.7022 19.1783C16.8633 18.1764 16.1725 17.3502 16.1658 17.3415C16.1571 17.329 16.235 17.105 16.592 16.1195C16.8325 15.4564 17.0345 14.8985 17.0528 14.8483L17.7407 15.6697C18.1188 16.1215 18.4305 16.4911 18.4334 16.4911C18.4363 16.4911 19.0443 14.8223 19.7841 12.7827Z" fill="#F7931E"/>
</svg>
