<svg width="20" height="17" viewBox="0 0 20 17" fill="none" xmlns="http://www.w3.org/2000/svg">
<path d="M13.3337 1.8898C14.5684 2.50343 15.417 3.77762 15.417 5.25C15.417 6.72238 14.5684 7.99657 13.3337 8.6102M15.0003 12.972C16.2599 13.5419 17.3941 14.4708 18.3337 15.6667M1.66699 15.6667C3.28907 13.6021 5.49131 12.3333 7.91699 12.3333C10.3427 12.3333 12.5449 13.6021 14.167 15.6667M11.667 5.25C11.667 7.32107 9.98806 9 7.91699 9C5.84592 9 4.16699 7.32107 4.16699 5.25C4.16699 3.17893 5.84592 1.5 7.91699 1.5C9.98806 1.5 11.667 3.17893 11.667 5.25Z" stroke="#F7931E" stroke-width="2" stroke-linecap="round" stroke-linejoin="round"/>
</svg>
