<svg width="18" height="6" viewBox="0 0 18 6" fill="none" xmlns="http://www.w3.org/2000/svg">
<path fill-rule="evenodd" clip-rule="evenodd" d="M4.32557 5.89364H2.8262L1.70186 1.34423C1.64849 1.13496 1.53518 0.949951 1.3685 0.862754C0.952539 0.643624 0.494174 0.46923 -0.00585938 0.381275V0.206123H2.40951C2.74286 0.206123 2.99288 0.46923 3.03455 0.774799L3.61792 4.05644L5.11656 0.206123H6.57426L4.32557 5.89364ZM7.40766 5.89364H5.99163L7.15764 0.206123H8.57367L7.40766 5.89364ZM10.4057 1.78174C10.4473 1.47541 10.6974 1.30026 10.989 1.30026C11.4474 1.25628 11.9467 1.34424 12.3634 1.56261L12.6134 0.338058C12.1967 0.162906 11.7384 0.0749512 11.3224 0.0749512C9.94803 0.0749512 8.94797 0.862757 8.94797 1.95613C8.94797 2.78791 9.65635 3.22466 10.1564 3.48776C10.6974 3.75011 10.9057 3.92526 10.864 4.18761C10.864 4.58114 10.4473 4.75629 10.0314 4.75629C9.53134 4.75629 9.0313 4.62511 8.57367 4.40598L8.32365 5.63129C8.82369 5.84966 9.36466 5.93762 9.86469 5.93762C11.4057 5.98084 12.3634 5.19379 12.3634 4.01246C12.3634 2.52481 10.4057 2.43761 10.4057 1.78174V1.78174ZM17.3191 5.89364L16.1948 0.206123H14.9871C14.7371 0.206123 14.4871 0.381275 14.4037 0.643624L12.3217 5.89364H13.7794L14.0704 5.06261H15.8614L16.0281 5.89364H17.3191ZM15.1955 1.73776L15.6114 3.88129H14.4454L15.1955 1.73776Z" fill="#172B85"/>
</svg>
